<svg width="31" height="15" viewBox="0 0 31 15" fill="none" xmlns="http://www.w3.org/2000/svg">
<path d="M1 6.45032C0.447715 6.45032 4.82823e-08 6.89803 0 7.45032C-4.82823e-08 8.0026 0.447715 8.45032 1 8.45032L1 6.45032ZM30.4028 8.15743C30.7933 7.7669 30.7933 7.13374 30.4028 6.74321L24.0388 0.379252C23.6483 -0.0112728 23.0151 -0.0112729 22.6246 0.379251C22.2341 0.769776 22.2341 1.40294 22.6246 1.79347L28.2814 7.45032L22.6246 13.1072C22.2341 13.4977 22.2341 14.1309 22.6246 14.5214C23.0151 14.9119 23.6483 14.9119 24.0388 14.5214L30.4028 8.15743ZM1 8.45032L29.6957 8.45032L29.6957 6.45032L1 6.45032L1 8.45032Z" fill="white"/>
</svg>
