<svg width="24" height="25" viewBox="0 0 24 25" fill="none" xmlns="http://www.w3.org/2000/svg">
<path d="M18.6012 10.1564C18.6012 8.29157 17.8957 6.50314 16.6398 5.18453C15.384 3.86591 13.6807 3.12512 11.9047 3.12512C10.1287 3.12512 8.42547 3.86591 7.16965 5.18453C5.91382 6.50314 5.20831 8.29157 5.20831 10.1564C5.20831 13.0407 7.40623 16.8001 11.9047 21.3032C16.4032 16.8001 18.6012 13.0407 18.6012 10.1564ZM11.9047 23.4376C6.44789 18.2298 3.72021 13.8017 3.72021 10.1564C3.72021 7.87717 4.58251 5.69131 6.11741 4.07967C7.6523 2.46803 9.73407 1.56262 11.9047 1.56262C14.0754 1.56262 16.1572 2.46803 17.6921 4.07967C19.227 5.69131 20.0893 7.87717 20.0893 10.1564C20.0893 13.8017 17.3616 18.2298 11.9047 23.4376Z" fill="black"/>
<path d="M11.9053 12.5C12.4973 12.5 13.0651 12.2531 13.4837 11.8135C13.9023 11.374 14.1374 10.7779 14.1374 10.1562C14.1374 9.53465 13.9023 8.93851 13.4837 8.49897C13.0651 8.05943 12.4973 7.8125 11.9053 7.8125C11.3133 7.8125 10.7455 8.05943 10.3269 8.49897C9.90833 8.93851 9.67315 9.53465 9.67315 10.1562C9.67315 10.7779 9.90833 11.374 10.3269 11.8135C10.7455 12.2531 11.3133 12.5 11.9053 12.5ZM11.9053 14.0625C10.9186 14.0625 9.97237 13.6509 9.27469 12.9184C8.57701 12.1858 8.18506 11.1923 8.18506 10.1562C8.18506 9.12025 8.57701 8.12668 9.27469 7.39411C9.97237 6.66155 10.9186 6.25 11.9053 6.25C12.892 6.25 13.8382 6.66155 14.5359 7.39411C15.2336 8.12668 15.6255 9.12025 15.6255 10.1562C15.6255 11.1923 15.2336 12.1858 14.5359 12.9184C13.8382 13.6509 12.892 14.0625 11.9053 14.0625Z" fill="black"/>
</svg>
