<svg width="67" height="67" viewBox="0 0 67 67" fill="none" xmlns="http://www.w3.org/2000/svg">
<path fill-rule="evenodd" clip-rule="evenodd" d="M20.9947 11.5745C23.1496 11.4024 25.1953 10.5548 26.8404 9.15241C28.6985 7.56984 31.0595 6.70068 33.5002 6.70068C35.9409 6.70068 38.3019 7.56984 40.16 9.15241C41.8052 10.5548 43.8508 11.4024 46.0058 11.5745C48.4393 11.769 50.724 12.8239 52.4503 14.5502C54.1765 16.2764 55.2315 18.5611 55.426 20.9947C55.5968 23.1487 56.4444 25.1956 57.848 26.8404C59.4306 28.6985 60.2997 31.0595 60.2997 33.5002C60.2997 35.9409 59.4306 38.3019 57.848 40.16C56.4456 41.8052 55.598 43.8508 55.426 46.0058C55.2315 48.4393 54.1765 50.724 52.4503 52.4503C50.724 54.1765 48.4393 55.2315 46.0058 55.426C43.8508 55.598 41.8052 56.4456 40.16 57.848C38.3019 59.4306 35.9409 60.2997 33.5002 60.2997C31.0595 60.2997 28.6985 59.4306 26.8404 57.848C25.1953 56.4456 23.1496 55.598 20.9947 55.426C18.5611 55.2315 16.2764 54.1765 14.5502 52.4503C12.8239 50.724 11.769 48.4393 11.5745 46.0058C11.4024 43.8508 10.5548 41.8052 9.15241 40.16C7.56984 38.3019 6.70068 35.9409 6.70068 33.5002C6.70068 31.0595 7.56984 28.6985 9.15241 26.8404C10.5548 25.1953 11.4024 23.1496 11.5745 20.9947C11.769 18.5611 12.8239 16.2764 14.5502 14.5502C16.2764 12.8239 18.5611 11.769 20.9947 11.5745ZM45.9187 29.1687C46.5289 28.5368 46.8666 27.6906 46.8589 26.8123C46.8513 25.9339 46.499 25.0937 45.8779 24.4726C45.2567 23.8515 44.4165 23.4991 43.5382 23.4915C42.6598 23.4839 41.8136 23.8215 41.1818 24.4318L30.1502 35.4633L25.8187 31.1318C25.1868 30.5215 24.3406 30.1839 23.4623 30.1915C22.5839 30.1991 21.7437 30.5515 21.1226 31.1726C20.5015 31.7937 20.1491 32.6339 20.1415 33.5123C20.1339 34.3906 20.4715 35.2368 21.0818 35.8687L27.7818 42.5687C28.41 43.1967 29.2619 43.5495 30.1502 43.5495C31.0385 43.5495 31.8904 43.1967 32.5187 42.5687L45.9187 29.1687Z" fill="#007FFF"/>
</svg>
