<svg width="85" height="85" viewBox="0 0 85 85" fill="none" xmlns="http://www.w3.org/2000/svg">
<path d="M27.2266 18.5938V7.96875C27.2266 7.44039 27.4365 6.93367 27.8101 6.56006C28.1837 6.18645 28.6904 5.97656 29.2188 5.97656C29.7471 5.97656 30.2538 6.18645 30.6274 6.56006C31.001 6.93367 31.2109 7.44039 31.2109 7.96875V18.5938C31.2109 19.1221 31.001 19.6288 30.6274 20.0024C30.2538 20.376 29.7471 20.5859 29.2188 20.5859C28.6904 20.5859 28.1837 20.376 27.8101 20.0024C27.4365 19.6288 27.2266 19.1221 27.2266 18.5938ZM39.8438 20.5859C40.3721 20.5859 40.8788 20.376 41.2524 20.0024C41.626 19.6288 41.8359 19.1221 41.8359 18.5938V7.96875C41.8359 7.44039 41.626 6.93367 41.2524 6.56006C40.8788 6.18645 40.3721 5.97656 39.8438 5.97656C39.3154 5.97656 38.8087 6.18645 38.4351 6.56006C38.0615 6.93367 37.8516 7.44039 37.8516 7.96875V18.5938C37.8516 19.1221 38.0615 19.6288 38.4351 20.0024C38.8087 20.376 39.3154 20.5859 39.8438 20.5859ZM50.4688 20.5859C50.9971 20.5859 51.5038 20.376 51.8774 20.0024C52.251 19.6288 52.4609 19.1221 52.4609 18.5938V7.96875C52.4609 7.44039 52.251 6.93367 51.8774 6.56006C51.5038 6.18645 50.9971 5.97656 50.4688 5.97656C49.9404 5.97656 49.4337 6.18645 49.0601 6.56006C48.6865 6.93367 48.4766 7.44039 48.4766 7.96875V18.5938C48.4766 19.1221 48.6865 19.6288 49.0601 20.0024C49.4337 20.376 49.9404 20.5859 50.4688 20.5859ZM81.6797 39.8438V42.5C81.6727 45.7814 80.3909 48.9318 78.1049 51.2859C75.8189 53.6401 72.7076 55.0138 69.4277 55.1172C67.4587 60.8856 63.8605 65.96 59.0684 69.7266H69.0625C69.5909 69.7266 70.0976 69.9365 70.4712 70.3101C70.8448 70.6837 71.0547 71.1904 71.0547 71.7188C71.0547 72.2471 70.8448 72.7538 70.4712 73.1274C70.0976 73.501 69.5909 73.7109 69.0625 73.7109H10.625C10.0966 73.7109 9.58992 73.501 9.21631 73.1274C8.8427 72.7538 8.63281 72.2471 8.63281 71.7188C8.63281 71.1904 8.8427 70.6837 9.21631 70.3101C9.58992 69.9365 10.0966 69.7266 10.625 69.7266H20.6191C16.8933 66.8041 13.8789 63.0746 11.8027 58.8187C9.72656 54.5628 8.64273 49.8915 8.63281 45.1562V29.2188C8.63281 28.6904 8.8427 28.1837 9.21631 27.8101C9.58992 27.4365 10.0966 27.2266 10.625 27.2266H69.0625C72.4088 27.2266 75.618 28.5559 77.9842 30.9221C80.3504 33.2882 81.6797 36.4975 81.6797 39.8438ZM66.0078 52.6934C66.0078 52.627 66.041 52.5606 66.041 52.4941C66.7194 50.107 67.0657 47.6379 67.0703 45.1562V31.2109H12.6172V45.1562C12.6298 50.2954 14.0914 55.3268 16.8341 59.6729C19.5768 64.019 23.4895 67.5036 28.123 69.7266H51.5645C55.0344 68.0628 58.1144 65.6858 60.6032 62.7507C63.092 59.8157 64.9336 56.3886 66.0078 52.6934ZM77.6953 39.8438C77.6954 37.9005 77.0399 36.014 75.8348 34.4895C74.6297 32.9651 72.9455 31.8918 71.0547 31.4434V45.1562C71.0528 47.1177 70.8638 49.0745 70.4902 51C72.5047 50.669 74.3356 49.6321 75.6557 48.0748C76.9757 46.5175 77.6987 44.5415 77.6953 42.5V39.8438Z" fill="#007FFF"/>
</svg>
