<svg width="25" height="25" viewBox="0 0 25 25" fill="none" xmlns="http://www.w3.org/2000/svg">
<path d="M2.69727 3.90453C2.69727 3.35529 3.14252 2.91003 3.69176 2.91003H11.6477C11.9115 2.91003 12.1645 3.01481 12.351 3.20132L22.2959 13.1463C22.6843 13.5347 22.6843 14.1644 22.2959 14.5527L14.34 22.5087C13.9516 22.8971 13.3219 22.8971 12.9335 22.5087L2.98855 12.5637C2.80204 12.3772 2.69727 12.1243 2.69727 11.8605V3.90453ZM4.68626 4.89903V11.4486L13.6367 20.3991L20.1863 13.8495L11.2358 4.89903H4.68626Z" fill="#A5A5A5"/>
<path d="M9.65875 8.37977C9.65875 9.20364 8.99087 9.87152 8.16701 9.87152C7.34314 9.87152 6.67526 9.20364 6.67526 8.37977C6.67526 7.5559 7.34314 6.88803 8.16701 6.88803C8.99087 6.88803 9.65875 7.5559 9.65875 8.37977Z" fill="#A5A5A5"/>
</svg>
