<svg width="85" height="85" viewBox="0 0 85 85" fill="none" xmlns="http://www.w3.org/2000/svg">
<path d="M61.3884 49.9379C60.2925 47.9934 58.8093 46.2944 57.0305 44.9461C55.2517 43.5977 53.2151 42.6287 51.0468 42.099C49.0123 41.4887 46.9474 40.9843 44.8607 40.5879V19.1727C49.0094 19.6177 52.9674 21.1488 56.3357 23.6115C56.5682 23.8177 56.8391 23.9761 57.1328 24.0776C57.4266 24.1791 57.7375 24.2218 58.0477 24.2031C58.3579 24.1845 58.6615 24.1049 58.941 23.969C59.2205 23.8331 59.4704 23.6434 59.6766 23.4108C59.8828 23.1783 60.0412 22.9074 60.1427 22.6137C60.2442 22.3199 60.2869 22.009 60.2682 21.6988C60.2496 21.3886 60.17 21.085 60.0341 20.8055C59.8981 20.526 59.7085 20.2761 59.4759 20.0699C55.2502 16.8153 50.1758 14.8479 44.8607 14.4032V7.08377C44.8607 6.45756 44.6119 5.857 44.1691 5.41421C43.7263 4.97142 43.1257 4.72266 42.4995 4.72266C41.8733 4.72266 41.2728 4.97142 40.83 5.41421C40.3872 5.857 40.1384 6.45756 40.1384 7.08377V14.1671C29.7495 14.4032 24.012 19.574 22.2648 24.0365C21.0992 26.9101 20.9885 30.1035 21.9522 33.051C22.916 35.9984 24.892 38.5095 27.5301 40.1393C31.3702 42.4802 35.6714 43.9623 40.1384 44.4838V66.1115C33.9743 65.8012 28.0693 63.5352 23.2801 59.6421C23.0664 59.3877 22.8014 59.1814 22.5024 59.0364C22.2035 58.8915 21.8773 58.8113 21.5452 58.8011C21.2132 58.7908 20.8827 58.8508 20.5753 58.977C20.268 59.1032 19.9908 59.2929 19.7618 59.5336C19.5328 59.7743 19.3572 60.0606 19.2464 60.3738C19.1357 60.687 19.0922 61.0201 19.119 61.3512C19.1458 61.6824 19.2421 62.0042 19.4017 62.2955C19.5614 62.5869 19.7807 62.8413 20.0454 63.0421C25.693 67.7968 32.7617 70.5379 40.1384 70.8338V77.9171C40.1384 78.5433 40.3872 79.1439 40.83 79.5867C41.2728 80.0294 41.8733 80.2782 42.4995 80.2782C43.1257 80.2782 43.7263 80.0294 44.1691 79.5867C44.6119 79.1439 44.8607 78.5433 44.8607 77.9171V70.8338C51.519 70.3852 59.1926 68.2602 62.0968 59.5949C62.6222 58.0182 62.8301 56.353 62.7085 54.6955C62.587 53.0381 62.1383 51.4211 61.3884 49.9379ZM30.1982 36.1727C28.4741 35.1464 27.1726 33.5387 26.5277 31.6388C25.8829 29.7388 25.9369 27.6711 26.6801 25.8074C26.9398 25.099 29.5843 19.1727 40.1384 18.8893V39.6671C36.6162 39.2139 33.2292 38.0232 30.1982 36.1727ZM57.6107 57.9893C55.9107 63.0421 52.1329 65.474 44.8607 66.0171V45.4046C46.3718 45.7352 47.9301 46.1129 49.5829 46.6088C51.1442 46.9634 52.617 47.6318 53.9118 48.5735C55.2067 49.5152 56.2964 50.7105 57.1148 52.0865C58.0409 53.9149 58.2187 56.0321 57.6107 57.9893Z" fill="#007FFF"/>
</svg>
