<svg width="72" height="72" viewBox="0 0 72 72" fill="none" xmlns="http://www.w3.org/2000/svg">
<path d="M7 36C7 52.017 19.983 65 36 65C52.017 65 65 52.017 65 36H7Z" fill="white"/>
<path d="M49 36C49 52.016 45 65 36 65C52.017 65 65 52.016 65 36H49Z" fill="#D0CFCE"/>
<path d="M7 36C7 52.017 19.983 65 36 65C52.017 65 65 52.017 65 36H7Z" fill="#007FFF"/>
<path d="M7 24.1411L14 31.1411" stroke="#007FFF" stroke-width="3" stroke-miterlimit="10" stroke-linecap="round" stroke-linejoin="round"/>
<path d="M29.043 7.84619C29.1382 9.00938 29.6411 10.1016 30.463 10.9302C31.4003 11.8678 31.9269 13.1394 31.9269 14.4652C31.9269 15.791 31.4003 17.0626 30.463 18.0002C29.5256 18.9378 28.999 20.2094 28.999 21.5352C28.999 22.861 29.5256 24.1326 30.463 25.0702C29.5256 24.1326 28.999 22.861 28.999 21.5352C28.999 20.2094 29.5256 18.9378 30.463 18.0002C31.4003 17.0626 31.9269 15.791 31.9269 14.4652C31.9269 13.1394 31.4003 11.8678 30.463 10.9302C29.6411 10.1016 29.1382 9.00938 29.043 7.84619" stroke="#007FFF" stroke-width="2" stroke-miterlimit="10" stroke-linecap="round" stroke-linejoin="round"/>
<path d="M35.9607 7.03613C35.8607 8.43413 36.3227 9.86213 37.3907 10.9301C38.328 11.8678 38.8546 13.1393 38.8546 14.4651C38.8546 15.791 38.328 17.0625 37.3907 18.0001C36.4533 18.9378 35.9268 20.2093 35.9268 21.5351C35.9268 22.861 36.4533 24.1325 37.3907 25.0701C36.4533 24.1325 35.9268 22.861 35.9268 21.5351C35.9268 20.2093 36.4533 18.9378 37.3907 18.0001C38.328 17.0625 38.8546 15.791 38.8546 14.4651C38.8546 13.1393 38.328 11.8678 37.3907 10.9301C36.3227 9.86213 35.8607 8.43413 35.9607 7.03613Z" stroke="#007FFF" stroke-width="2" stroke-miterlimit="10" stroke-linecap="round" stroke-linejoin="round"/>
<path d="M42.8644 7.2832C42.8464 7.95798 42.966 8.62937 43.216 9.2564C43.4659 9.88343 43.8411 10.4529 44.3184 10.9302C45.2558 11.8678 45.7824 13.1394 45.7824 14.4652C45.7824 15.791 45.2558 17.0626 44.3184 18.0002C43.3811 18.9378 42.8545 20.2094 42.8545 21.5352C42.8545 22.861 43.3811 24.1326 44.3184 25.0702C43.3811 24.1326 42.8545 22.861 42.8545 21.5352C42.8545 20.2094 43.3811 18.9378 44.3184 18.0002C45.2558 17.0626 45.7824 15.791 45.7824 14.4652C45.7824 13.1394 45.2558 11.8678 44.3184 10.9302C43.8412 10.4529 43.4663 9.8833 43.2165 9.25628C42.9667 8.62926 42.8472 7.95791 42.8654 7.2832" stroke="#007FFF" stroke-width="2" stroke-miterlimit="10" stroke-linecap="round" stroke-linejoin="round"/>
</svg>
