<svg width="22" height="21" viewBox="0 0 22 21" fill="none" xmlns="http://www.w3.org/2000/svg">
<path d="M17.7897 7.46913V5.95906C17.7897 5.13642 17.4629 4.34748 16.8812 3.76578C16.2995 3.18409 15.5106 2.8573 14.6879 2.8573H6.85191C6.02927 2.8573 5.24033 3.18409 4.65863 3.76578C4.07694 4.34748 3.75015 5.13642 3.75015 5.95906V7.46913C3.02413 7.58808 2.36403 7.96122 1.88772 8.52192C1.41141 9.08263 1.1499 9.79437 1.1499 10.5301C1.1499 11.2658 1.41141 11.9775 1.88772 12.5382C2.36403 13.0989 3.02413 13.4721 3.75015 13.591V16.4071C3.75015 16.7102 3.87055 17.0008 4.08485 17.2151C4.29916 17.4295 4.58983 17.5498 4.8929 17.5498H16.6469C16.95 17.5498 17.2407 17.4295 17.455 17.2151C17.6693 17.0008 17.7897 16.7102 17.7897 16.4071V13.591C18.5157 13.4721 19.1758 13.0989 19.6521 12.5382C20.1284 11.9775 20.3899 11.2658 20.3899 10.5301C20.3899 9.79437 20.1284 9.08263 19.6521 8.52192C19.1758 7.96122 18.5157 7.58808 17.7897 7.46913ZM6.85191 3.8368H14.6879C15.2501 3.83895 15.7887 4.06324 16.1862 4.46077C16.5838 4.85831 16.808 5.39686 16.8102 5.95906V7.46913C16.0827 7.58712 15.4208 7.95962 14.9424 8.52022C14.464 9.08083 14.2003 9.79311 14.1982 10.5301V10.6933H7.34166V10.5301C7.33956 9.79311 7.07581 9.08083 6.59743 8.52022C6.11904 7.95962 5.45712 7.58712 4.72965 7.46913V5.95906C4.7318 5.39686 4.95609 4.85831 5.35362 4.46077C5.75116 4.06324 6.28971 3.83895 6.85191 3.8368ZM17.3244 12.6523H17.2999C17.1701 12.6523 17.0455 12.7039 16.9536 12.7958C16.8618 12.8876 16.8102 13.0122 16.8102 13.1421V16.4071C16.8102 16.4504 16.793 16.4919 16.7624 16.5225C16.7318 16.5531 16.6902 16.5703 16.6469 16.5703H4.8929C4.84961 16.5703 4.80808 16.5531 4.77747 16.5225C4.74685 16.4919 4.72965 16.4504 4.72965 16.4071V13.1421C4.72965 13.0122 4.67805 12.8876 4.58621 12.7958C4.49436 12.7039 4.36979 12.6523 4.2399 12.6523H4.21541C3.79675 12.6475 3.38886 12.5189 3.0431 12.2828C2.69733 12.0467 2.42913 11.7136 2.27225 11.3254C2.11537 10.9372 2.07682 10.5113 2.16145 10.1012C2.24608 9.69119 2.45012 9.31533 2.74787 9.02097C3.04563 8.72661 3.4238 8.52691 3.83479 8.44698C4.24579 8.36706 4.67124 8.41049 5.05761 8.57182C5.44397 8.73314 5.77399 9.00514 6.00612 9.3536C6.23826 9.70205 6.36213 10.1114 6.36216 10.5301V13.7951C6.36216 13.925 6.41376 14.0495 6.5056 14.1414C6.59745 14.2332 6.72202 14.2848 6.85191 14.2848C6.9818 14.2848 7.10637 14.2332 7.19822 14.1414C7.29006 14.0495 7.34166 13.925 7.34166 13.7951V11.6728H14.1982V13.7951C14.1982 13.925 14.2498 14.0495 14.3416 14.1414C14.4335 14.2332 14.558 14.2848 14.6879 14.2848C14.8178 14.2848 14.9424 14.2332 15.0342 14.1414C15.1261 14.0495 15.1777 13.925 15.1777 13.7951V10.5301C15.1777 10.1114 15.3016 9.70205 15.5337 9.3536C15.7659 9.00514 16.0959 8.73314 16.4822 8.57182C16.8686 8.41049 17.2941 8.36706 17.7051 8.44698C18.116 8.52691 18.4942 8.72661 18.792 9.02097C19.0897 9.31533 19.2938 9.69119 19.3784 10.1012C19.463 10.5113 19.4245 10.9372 19.2676 11.3254C19.1107 11.7136 18.8425 12.0467 18.4967 12.2828C18.151 12.5189 17.7431 12.6475 17.3244 12.6523Z" fill="#A5A5A5"/>
</svg>
