<svg width="77" height="77" viewBox="0 0 77 77" fill="none" xmlns="http://www.w3.org/2000/svg">
<path d="M33.187 11.9373C33.187 8.83754 31.9557 5.86478 29.7638 3.67295C27.572 1.48111 24.5992 0.249756 21.4995 0.249756C18.3998 0.249756 15.427 1.48111 13.2352 3.67295C11.0434 5.86478 9.81201 8.83754 9.81201 11.9373C9.81201 15.037 11.0434 18.0097 13.2352 20.2016C15.427 22.3934 18.3998 23.6248 21.4995 23.6248C24.5992 23.6248 27.572 22.3934 29.7638 20.2016C31.9557 18.0097 33.187 15.037 33.187 11.9373ZM14.062 11.9373C14.062 10.9605 14.2544 9.99341 14.6282 9.09105C15.0019 8.18869 15.5498 7.36878 16.2404 6.67815C16.931 5.98751 17.7509 5.43967 18.6533 5.0659C19.5557 4.69213 20.5228 4.49976 21.4995 4.49976C22.4762 4.49976 23.4434 4.69213 24.3457 5.0659C25.2481 5.43967 26.068 5.98751 26.7586 6.67815C27.4493 7.36878 27.9971 8.18869 28.3709 9.09105C28.7446 9.99341 28.937 10.9605 28.937 11.9373C28.937 13.9098 28.1534 15.8016 26.7586 17.1964C25.3638 18.5912 23.4721 19.3748 21.4995 19.3748C19.527 19.3748 17.6352 18.5912 16.2404 17.1964C14.8456 15.8016 14.062 13.9098 14.062 11.9373Z" fill="#007FFF"/>
<path d="M6.62451 27.8745H24.4023C23.7053 29.192 23.1868 30.62 22.8808 32.1245H6.62451C6.06093 32.1245 5.52043 32.3484 5.12191 32.7469C4.7234 33.1454 4.49951 33.6859 4.49951 34.2495V36.3745C4.49951 41.7295 9.17026 47.484 17.6575 48.827C16.289 49.762 15.15 51.0073 14.3383 52.4565C5.37076 50.0298 0.249512 43.1193 0.249512 36.3745V34.2495C0.249512 32.5588 0.921162 30.9372 2.11671 29.7417C3.31225 28.5462 4.93376 27.8745 6.62451 27.8745Z" fill="#007FFF"/>
<path d="M29.4857 27.8748C31.6277 25.2823 34.8704 23.6248 38.4999 23.6248C41.0451 23.6203 43.5219 24.4487 45.5523 25.9834C47.5827 27.5181 49.0553 29.6749 49.7454 32.1248C50.3606 34.3114 50.3259 36.6298 49.6457 38.797C48.9654 40.9643 47.6691 42.8866 45.9148 44.3296C44.1605 45.7725 42.0241 46.6736 39.7663 46.9228C37.5085 47.1721 35.227 46.7588 33.2002 45.7333C31.6397 44.939 30.2775 43.8043 29.2144 42.4129C28.1514 41.0215 27.4145 39.409 27.0583 37.6946C26.7021 35.9802 26.7357 34.2077 27.1566 32.508C27.5775 30.8083 28.3749 29.2249 29.4899 27.8748H29.4857ZM31.7807 32.1248C31.3621 33.0077 31.1215 33.9645 31.0727 34.9404C31.0238 35.9163 31.1677 36.8923 31.4961 37.8126C31.8244 38.7329 32.3308 39.5796 32.9864 40.3042C33.6419 41.0288 34.4337 41.6172 35.3167 42.0358C36.1996 42.4544 37.1564 42.6949 38.1323 42.7438C39.1082 42.7926 40.0842 42.6488 41.0045 42.3204C41.9248 41.9921 42.7715 41.4857 43.4961 40.8301C44.2207 40.1746 44.8091 39.3827 45.2277 38.4998C46.0731 36.716 46.1752 34.6695 45.5117 32.8104C44.8482 30.9514 43.4733 29.432 41.6896 28.5866C39.9058 27.7413 37.8593 27.6391 36.0002 28.3026C34.1412 28.9662 32.6218 30.341 31.7764 32.1248H31.7807Z" fill="#007FFF"/>
<path d="M62.6603 52.4565C61.8508 51.0065 60.7143 49.7652 59.3411 48.8313C67.8241 47.484 72.4991 41.7253 72.4991 36.3745V34.2495C72.4991 33.6859 72.2752 33.1454 71.8767 32.7469C71.4782 32.3484 70.9377 32.1245 70.3741 32.1245H54.1178C53.8176 30.6427 53.3066 29.2115 52.6006 27.8745H70.3741C72.0648 27.8745 73.6863 28.5462 74.8819 29.7417C76.0774 30.9372 76.7491 32.5588 76.7491 34.2495V36.3745C76.7491 43.1193 71.6236 50.0255 62.6603 52.4565Z" fill="#007FFF"/>
<path d="M57.5693 52.8223C56.4473 51.8448 54.981 51.2498 53.3745 51.2498H23.6245C22.7867 51.2475 21.9567 51.4109 21.1823 51.7305C20.4078 52.0501 19.7041 52.5195 19.1117 53.112C18.5193 53.7044 18.0498 54.4081 17.7302 55.1825C17.4107 55.957 17.2473 56.787 17.2495 57.6248V59.7498C17.2495 68.1265 25.1545 76.7498 38.4995 76.7498C51.8445 76.7498 59.7495 68.1265 59.7495 59.7498V57.6248C59.7495 55.7123 58.908 53.9953 57.5693 52.8223ZM21.4995 57.6248C21.4995 57.0612 21.7234 56.5207 22.1219 56.1222C22.5204 55.7237 23.0609 55.4998 23.6245 55.4998H53.3745C53.9381 55.4998 54.4786 55.7237 54.8771 56.1222C55.2757 56.5207 55.4995 57.0612 55.4995 57.6248V59.7498C55.4995 65.8613 49.4135 72.4998 38.4995 72.4998C27.5855 72.4998 21.4995 65.8613 21.4995 59.7498V57.6248Z" fill="#007FFF"/>
<path d="M55.4995 0.249756C58.5992 0.249756 61.572 1.48111 63.7638 3.67295C65.9557 5.86478 67.187 8.83754 67.187 11.9373C67.187 15.037 65.9557 18.0097 63.7638 20.2016C61.572 22.3934 58.5992 23.6248 55.4995 23.6248C52.3998 23.6248 49.427 22.3934 47.2352 20.2016C45.0434 18.0097 43.812 15.037 43.812 11.9373C43.812 8.83754 45.0434 5.86478 47.2352 3.67295C49.427 1.48111 52.3998 0.249756 55.4995 0.249756ZM55.4995 4.49976C53.527 4.49976 51.6352 5.28335 50.2404 6.67815C48.8456 8.07295 48.062 9.96471 48.062 11.9373C48.062 13.9098 48.8456 15.8016 50.2404 17.1964C51.6352 18.5912 53.527 19.3748 55.4995 19.3748C57.4721 19.3748 59.3638 18.5912 60.7586 17.1964C62.1534 15.8016 62.937 13.9098 62.937 11.9373C62.937 9.96471 62.1534 8.07295 60.7586 6.67815C59.3638 5.28335 57.4721 4.49976 55.4995 4.49976Z" fill="#007FFF"/>
</svg>
