<svg width="27" height="23" viewBox="0 0 27 23" fill="none" xmlns="http://www.w3.org/2000/svg">
<path d="M26.4259 5.42031C26.2772 4.83822 26.0476 4.27985 25.7439 3.76148C25.4522 3.22223 25.0792 2.73111 24.6381 2.3054C23.9984 1.66792 23.241 1.16086 22.4079 0.812451C20.7309 0.124202 18.8503 0.124202 17.1733 0.812451C16.3859 1.14576 15.6624 1.61352 15.0353 2.19481L14.9431 2.3054L13.7451 3.50344L12.547 2.3054L12.4549 2.19481C11.8278 1.61352 11.1043 1.14576 10.3168 0.812451C8.63987 0.124202 6.75929 0.124202 5.08232 0.812451C4.24919 1.16086 3.49174 1.66792 2.85212 2.3054C1.97729 3.15662 1.35801 4.23557 1.06427 5.42031C0.907997 6.02195 0.833601 6.64192 0.843091 7.26345C0.843091 7.84773 0.916816 8.43016 1.06427 8.996C1.21879 9.56746 1.44157 10.1182 1.7278 10.6364C2.03692 11.1691 2.41495 11.6587 2.85212 12.0925L13.7451 22.9855L24.6381 12.0925C25.0749 11.663 25.449 11.1709 25.7439 10.6364C26.3426 9.61365 26.6546 8.44849 26.6471 7.26345C26.6566 6.64192 26.5822 6.02194 26.4259 5.42031ZM24.5828 8.42463C24.362 9.2668 23.9234 10.036 23.311 10.6548L13.7082 20.2392L4.10545 10.6548C3.79253 10.3397 3.5201 9.98677 3.29447 9.60424C3.08215 9.2258 2.91512 8.82369 2.79682 8.4062C2.70238 7.98876 2.65295 7.5624 2.64937 7.13443C2.65187 6.69422 2.7013 6.25553 2.79682 5.8258C2.91165 5.40711 3.07885 5.00458 3.29447 4.62776C3.51565 4.2407 3.78843 3.8905 4.10545 3.57716C4.57895 3.11001 5.13521 2.735 5.74585 2.47128C6.97636 1.97902 8.34908 1.97902 9.57959 2.47128C10.1878 2.72379 10.7371 3.09426 11.2016 3.55873L13.7082 6.08384L16.2149 3.55873C16.679 3.09344 17.2302 2.72395 17.8369 2.47128C19.0674 1.97902 20.4401 1.97902 21.6706 2.47128C22.2807 2.73485 22.8373 3.11085 23.311 3.57716C23.6317 3.88128 23.9008 4.23517 24.1035 4.62776C24.5305 5.38061 24.7529 6.2321 24.7486 7.09757C24.7737 7.54291 24.7365 7.98958 24.6381 8.42463H24.5828Z" fill="#FFB800"/>
</svg>
