<svg width="24" height="25" viewBox="0 0 24 25" fill="none" xmlns="http://www.w3.org/2000/svg">
<path d="M18.6459 10.3073C18.6459 8.52702 17.9387 6.81964 16.6798 5.56079C15.421 4.30193 13.7136 3.59472 11.9333 3.59472C10.153 3.59472 8.44562 4.30193 7.18677 5.56079C5.92791 6.81964 5.22069 8.52702 5.22069 10.3073C5.22069 13.061 7.42391 16.65 11.9333 20.949C16.4427 16.65 18.6459 13.061 18.6459 10.3073ZM11.9333 22.9867C6.46327 18.0149 3.729 13.7874 3.729 10.3073C3.729 8.1314 4.59338 6.04461 6.13198 4.50601C7.67058 2.96741 9.75738 2.10303 11.9333 2.10303C14.1092 2.10303 16.196 2.96741 17.7346 4.50601C19.2732 6.04461 20.1376 8.1314 20.1376 10.3073C20.1376 13.7874 17.4033 18.0149 11.9333 22.9867Z" fill="#A5A5A5"/>
<path d="M11.9333 12.5443C12.5268 12.5443 13.0959 12.3085 13.5155 11.8889C13.9351 11.4693 14.1709 10.9002 14.1709 10.3067C14.1709 9.7133 13.9351 9.14418 13.5155 8.72456C13.0959 8.30494 12.5268 8.0692 11.9333 8.0692C11.3399 8.0692 10.7708 8.30494 10.3511 8.72456C9.93153 9.14418 9.69579 9.7133 9.69579 10.3067C9.69579 10.9002 9.93153 11.4693 10.3511 11.8889C10.7708 12.3085 11.3399 12.5443 11.9333 12.5443ZM11.9333 14.036C10.9443 14.036 9.99573 13.6431 9.29637 12.9437C8.597 12.2443 8.2041 11.2958 8.2041 10.3067C8.2041 9.31768 8.597 8.36914 9.29637 7.66978C9.99573 6.97041 10.9443 6.57751 11.9333 6.57751C12.9224 6.57751 13.8709 6.97041 14.5703 7.66978C15.2696 8.36914 15.6625 9.31768 15.6625 10.3067C15.6625 11.2958 15.2696 12.2443 14.5703 12.9437C13.8709 13.6431 12.9224 14.036 11.9333 14.036Z" fill="#A5A5A5"/>
</svg>
