<svg width="195" height="31" viewBox="0 0 195 31" fill="none" xmlns="http://www.w3.org/2000/svg">
<path d="M29.3677 30L29.33 3.65422H25.3029L15.028 21.1177L4.565 3.65422H0.537862V30H5.20483V12.7623L13.8613 26.9891H16.0442L24.7007 12.5365L24.7383 30H29.3677ZM50.786 9.90193V20.0639C50.786 24.091 48.5654 26.1234 45.291 26.1234C42.3177 26.1234 40.5864 24.3921 40.5864 20.7413V9.90193H35.8818V21.3812C35.8818 27.4407 39.382 30.2635 44.5383 30.2635C47.1352 30.2635 49.5063 29.2849 51.0118 27.4407V30H55.4906V9.90193H50.786ZM67.8604 30.2635C73.506 30.2635 76.9686 27.8171 76.9686 24.0534C76.9686 16.1873 64.5484 19.8004 64.5484 15.7356C64.5484 14.4184 65.9033 13.4774 68.7637 13.4774C70.6832 13.4774 72.6027 13.8538 74.5222 14.9829L76.3287 11.4074C74.5222 10.3159 71.4736 9.67611 68.8014 9.67611C63.3817 9.67611 59.9567 12.1601 59.9567 15.9615C59.9567 23.9781 72.3769 20.365 72.3769 24.2039C72.3769 25.5965 71.1348 26.4245 68.1615 26.4245C65.6399 26.4245 62.93 25.5965 61.1611 24.4297L59.3545 28.0052C61.1611 29.2849 64.5108 30.2635 67.8604 30.2635ZM90.0529 30.2635C96.3006 30.2635 100.779 25.9729 100.779 19.951C100.779 13.9291 96.3006 9.67611 90.0529 9.67611C83.8805 9.67611 79.3641 13.9291 79.3641 19.951C79.3641 25.9729 83.8805 30.2635 90.0529 30.2635ZM90.0529 26.2363C86.6656 26.2363 84.1063 23.7899 84.1063 19.951C84.1063 16.112 86.6656 13.6656 90.0529 13.6656C93.4779 13.6656 96.0372 16.112 96.0372 19.951C96.0372 23.7899 93.4779 26.2363 90.0529 26.2363ZM124.548 6.58989C126.317 6.58989 127.559 5.31024 127.559 3.65422C127.559 2.11111 126.28 0.94437 124.548 0.94437C122.817 0.94437 121.537 2.18639 121.537 3.76713C121.537 5.34788 122.817 6.58989 124.548 6.58989ZM105.918 8.77283V10.0525H102.606V13.8162H105.918V30H110.623V13.8162H116.005V10.0525H110.472V8.8481C110.472 6.7028 111.488 5.61134 113.445 5.61134C114.424 5.61134 115.327 5.95007 116.042 6.43935L117.36 2.90148C116.306 2.14875 114.725 1.81002 113.107 1.81002C108.44 1.81002 105.918 4.5575 105.918 8.77283ZM122.177 30H126.882V9.90193H122.177V30ZM137.544 12.8376V9.90193H133.065V30H137.769V20.2521C137.769 16.1496 140.028 14.042 143.603 14.042C143.942 14.042 144.281 14.0796 144.695 14.1549V9.67611C141.345 9.67611 138.898 10.7299 137.544 12.8376ZM148.686 30H153.39V2.07347H148.686V30ZM167.243 9.67611C164.006 9.67611 160.882 10.5041 158.737 12.1601L160.581 15.5851C162.087 14.3431 164.42 13.5903 166.678 13.5903C170.028 13.5903 171.684 15.2087 171.684 17.9562V18.2573H166.49C160.393 18.2573 158.135 20.8919 158.135 24.2416C158.135 27.7418 161.033 30.2635 165.624 30.2635C168.635 30.2635 170.818 29.2849 171.947 27.5536V30H176.389V18.2197C176.389 12.4236 173.039 9.67611 167.243 9.67611ZM166.603 26.8385C164.194 26.8385 162.764 25.747 162.764 24.0534C162.764 22.5855 163.63 21.3812 166.829 21.3812H171.684V23.7146C170.894 25.7847 168.899 26.8385 166.603 26.8385ZM186.905 12.8376V9.90193H182.426V30H187.131V20.2521C187.131 16.1496 189.389 14.042 192.965 14.042C193.303 14.042 193.642 14.0796 194.056 14.1549V9.67611C190.706 9.67611 188.26 10.7299 186.905 12.8376Z" fill="black"/>
</svg>
