<svg width="56" height="57" viewBox="0 0 56 57" fill="none" xmlns="http://www.w3.org/2000/svg">
<g clip-path="url(#clip0_186_109)">
<rect y="0.450317" width="56" height="56" rx="28" fill="#272E3B"/>
<g clip-path="url(#clip1_186_109)">
<path d="M50.3996 49.2945C50.3957 45.9953 49.0833 42.8323 46.7504 40.4994C44.6864 38.4354 41.9729 37.1703 39.09 36.9032C38.3433 36.834 37.5991 37.0003 36.9081 37.2918L34.5298 38.2952C30.3545 40.0566 25.6447 40.0566 21.4694 38.2952L19.0911 37.2918C18.4001 37.0003 17.656 36.834 16.9092 36.9032C14.0264 37.1703 11.3128 38.4354 9.24887 40.4994C6.91594 42.8323 5.60356 45.9953 5.59961 49.2945V51.7834C5.59961 57.7243 7.9596 63.4218 12.1604 67.6226C16.3612 71.8234 22.0588 74.1834 27.9996 74.1834C33.9405 74.1834 39.638 71.8234 43.8388 67.6226C48.0396 63.4218 50.3996 57.7243 50.3996 51.7834V49.2945Z" fill="#DCDEE0"/>
<circle cx="28.0004" cy="22.8501" r="12.6" fill="#DCDEE0"/>
</g>
<rect x="0.7" y="1.15032" width="54.6" height="54.6" rx="27.3" stroke="#425170" stroke-width="1.4"/>
</g>
<defs>
<clipPath id="clip0_186_109">
<rect y="0.450317" width="56" height="56" rx="28" fill="white"/>
</clipPath>
<clipPath id="clip1_186_109">
<rect y="0.450317" width="56" height="56" rx="28" fill="white"/>
</clipPath>
</defs>
</svg>
