<svg width="25" height="25" viewBox="0 0 25 25" fill="none" xmlns="http://www.w3.org/2000/svg">
<path d="M12.6419 4.58946C10.4449 4.58946 8.6639 6.37047 8.6639 8.56745C8.6639 10.7644 10.4449 12.5454 12.6419 12.5454C14.8389 12.5454 16.6199 10.7644 16.6199 8.56745C16.6199 6.37047 14.8389 4.58946 12.6419 4.58946ZM6.6749 8.56745C6.6749 5.27198 9.34641 2.60046 12.6419 2.60046C15.9374 2.60046 18.6089 5.27198 18.6089 8.56745C18.6089 11.8629 15.9374 14.5344 12.6419 14.5344C9.34641 14.5344 6.6749 11.8629 6.6749 8.56745ZM8.6639 18.5124C7.01616 18.5124 5.6804 19.8482 5.6804 21.4959C5.6804 22.0452 5.23515 22.4904 4.6859 22.4904C4.13666 22.4904 3.69141 22.0452 3.69141 21.4959C3.69141 18.7497 5.91767 16.5234 8.6639 16.5234H16.6199C19.3661 16.5234 21.5924 18.7497 21.5924 21.4959C21.5924 22.0452 21.1471 22.4904 20.5979 22.4904C20.0486 22.4904 19.6034 22.0452 19.6034 21.4959C19.6034 19.8482 18.2676 18.5124 16.6199 18.5124H8.6639Z" fill="#A5A5A5"/>
</svg>
