<svg width="16" height="20" viewBox="0 0 16 20" fill="none" xmlns="http://www.w3.org/2000/svg">
<path d="M8.00001 0.375C5.99503 0.377365 4.07286 1.17489 2.65513 2.59262C1.23739 4.01035 0.439873 5.93253 0.437508 7.9375C0.435107 9.57597 0.970307 11.17 1.96101 12.475C1.96101 12.475 2.16726 12.7466 2.20095 12.7858L8.00001 19.625L13.8018 12.7823C13.8321 12.7459 14.039 12.475 14.039 12.475L14.0397 12.4729C15.0299 11.1685 15.5649 9.57521 15.5625 7.9375C15.5601 5.93253 14.7626 4.01035 13.3449 2.59262C11.9272 1.17489 10.005 0.377365 8.00001 0.375ZM8.00001 10.6875C7.45611 10.6875 6.92443 10.5262 6.47219 10.224C6.01995 9.92187 5.66748 9.49238 5.45934 8.98988C5.2512 8.48738 5.19674 7.93445 5.30285 7.401C5.40896 6.86755 5.67087 6.37755 6.05546 5.99296C6.44006 5.60836 6.93006 5.34645 7.46351 5.24034C7.99696 5.13423 8.54989 5.18869 9.05239 5.39683C9.55488 5.60497 9.98438 5.95745 10.2865 6.40968C10.5887 6.86192 10.75 7.3936 10.75 7.9375C10.7491 8.66657 10.4591 9.36551 9.94355 9.88104C9.42802 10.3966 8.72907 10.6866 8.00001 10.6875Z" fill="black"/>
</svg>
