<svg width="16" height="16" viewBox="0 0 16 16" fill="none" xmlns="http://www.w3.org/2000/svg">
<path d="M6.76412 9.17334C7.69189 10.1145 8.81447 10.8412 10.053 11.3022L11.7286 9.96889C11.7782 9.93469 11.8371 9.91637 11.8975 9.91637C11.9578 9.91637 12.0167 9.93469 12.0663 9.96889L15.1775 11.9733C15.2956 12.0443 15.3955 12.1418 15.4695 12.2581C15.5435 12.3744 15.5894 12.5063 15.6036 12.6434C15.6178 12.7805 15.6 12.919 15.5515 13.048C15.503 13.177 15.4251 13.2929 15.3241 13.3867L13.8663 14.8267C13.6576 15.033 13.401 15.1843 13.1195 15.2673C12.838 15.3503 12.5403 15.3623 12.253 15.3022C9.38732 14.7104 6.74595 13.3242 4.63078 11.3022C2.56255 9.26012 1.13135 6.66172 0.510783 3.82223C0.449479 3.5394 0.462274 3.24553 0.547928 2.96911C0.633582 2.69268 0.78919 2.44306 0.999672 2.24445L2.51078 0.786673C2.60429 0.690578 2.71833 0.616884 2.84436 0.571107C2.97039 0.525331 3.10514 0.508659 3.23852 0.522339C3.3719 0.536019 3.50047 0.579698 3.61458 0.650104C3.72869 0.72051 3.82539 0.815819 3.89745 0.928895L5.96856 4.00001C6.00428 4.04823 6.02357 4.10666 6.02357 4.16667C6.02357 4.22669 6.00428 4.28511 5.96856 4.33334L4.60412 5.97334C5.07771 7.18709 5.81555 8.28019 6.76412 9.17334Z" fill="black"/>
</svg>
