<svg width="21" height="21" viewBox="0 0 21 21" fill="none" xmlns="http://www.w3.org/2000/svg">
<path d="M16.0698 8.65536C16.0698 7.13911 15.4675 5.68495 14.3953 4.61279C13.3232 3.54064 11.869 2.9383 10.3528 2.9383C8.83649 2.9383 7.38234 3.54064 6.31018 4.61279C5.23802 5.68495 4.63569 7.13911 4.63569 8.65536C4.63569 11.0006 6.51216 14.0573 10.3528 17.7188C14.1933 14.0573 16.0698 11.0006 16.0698 8.65536ZM10.3528 19.4543C5.69398 15.2198 3.36523 11.6193 3.36523 8.65536C3.36523 6.80216 4.10142 5.02486 5.41183 3.71444C6.72224 2.40403 8.49955 1.66785 10.3528 1.66785C12.206 1.66785 13.9833 2.40403 15.2937 3.71444C16.6041 5.02486 17.3403 6.80216 17.3403 8.65536C17.3403 11.6193 15.0115 15.2198 10.3528 19.4543Z" fill="#A5A5A5"/>
<path d="M10.3519 10.5606C10.8573 10.5606 11.3421 10.3598 11.6995 10.0024C12.0568 9.64504 12.2576 9.16032 12.2576 8.6549C12.2576 8.14948 12.0568 7.66477 11.6995 7.30738C11.3421 6.94999 10.8573 6.74922 10.3519 6.74922C9.84651 6.74922 9.36179 6.94999 9.0044 7.30738C8.64702 7.66477 8.44624 8.14948 8.44624 8.6549C8.44624 9.16032 8.64702 9.64504 9.0044 10.0024C9.36179 10.3598 9.84651 10.5606 10.3519 10.5606ZM10.3519 11.831C9.50956 11.831 8.7017 11.4964 8.10605 10.9008C7.51041 10.3051 7.17578 9.49727 7.17578 8.6549C7.17578 7.81254 7.51041 7.00467 8.10605 6.40903C8.7017 5.81339 9.50956 5.47876 10.3519 5.47876C11.1943 5.47876 12.0022 5.81339 12.5978 6.40903C13.1934 7.00467 13.5281 7.81254 13.5281 8.6549C13.5281 9.49727 13.1934 10.3051 12.5978 10.9008C12.0022 11.4964 11.1943 11.831 10.3519 11.831Z" fill="#A5A5A5"/>
</svg>
