<svg width="18" height="18" viewBox="0 0 18 18" fill="none" xmlns="http://www.w3.org/2000/svg">
<g clip-path="url(#clip0_84_1249)">
<path d="M3.79898 0.212402C2.04858 0.212402 0.629883 1.86773 0.629883 3.90968C0.629883 5.65797 1.6704 7.12315 3.06798 7.50767L2.54296 16.06C2.53316 16.1957 2.55162 16.3319 2.59718 16.4601C2.64273 16.5883 2.71438 16.7057 2.80761 16.8048C2.90084 16.9039 3.01361 16.9825 3.13879 17.0358C3.26398 17.0891 3.39885 17.1158 3.53489 17.1143H4.06307C4.64407 17.1143 5.08986 16.6399 5.055 16.06L4.52999 7.50767C5.92756 7.12209 6.96808 5.65797 6.96808 3.90968C6.96808 1.86773 5.54938 0.212402 3.79898 0.212402ZM14.4503 0.212402L13.5704 5.49423H12.9101L12.4696 0.212402H12.0291L11.5886 5.49423H10.9284L10.0484 0.212402H9.60794V7.07878C9.60794 7.21886 9.66358 7.35321 9.76264 7.45226C9.86169 7.55132 9.99604 7.60696 10.1361 7.60696H11.5115L10.9928 16.06C10.983 16.1957 11.0015 16.3319 11.047 16.4601C11.0926 16.5883 11.1643 16.7057 11.2575 16.8048C11.3507 16.9039 11.4635 16.9825 11.5887 17.0358C11.7138 17.0891 11.8487 17.1158 11.9848 17.1143H12.5129C13.0939 17.1143 13.5397 16.6399 13.5049 16.06L12.9862 7.60696H14.3616C14.5017 7.60696 14.636 7.55132 14.7351 7.45226C14.8341 7.35321 14.8898 7.21886 14.8898 7.07878V0.212402H14.4493H14.4503Z" fill="#A5A5A5"/>
</g>
<defs>
<clipPath id="clip0_84_1249">
<rect width="16.9019" height="16.9019" fill="white" transform="translate(0.100586 0.212402)"/>
</clipPath>
</defs>
</svg>
