<svg width="18" height="18" viewBox="0 0 18 18" fill="none" xmlns="http://www.w3.org/2000/svg">
<g clip-path="url(#clip0_84_1247)">
<path d="M15.044 6.30578V5.01967C15.044 4.31904 14.7657 3.6471 14.2703 3.15168C13.7749 2.65626 13.1029 2.37793 12.4023 2.37793H5.72842C5.02779 2.37793 4.35585 2.65626 3.86043 3.15168C3.365 3.6471 3.08668 4.31904 3.08668 5.01967V6.30578C2.46833 6.40709 1.90613 6.7249 1.50046 7.20244C1.09479 7.67998 0.87207 8.28618 0.87207 8.91277C0.87207 9.53936 1.09479 10.1455 1.50046 10.6231C1.90613 11.1006 2.46833 11.4184 3.08668 11.5197V13.9182C3.08668 14.1763 3.18922 14.4239 3.37174 14.6064C3.55427 14.7889 3.80182 14.8914 4.05995 14.8914H14.0708C14.3289 14.8914 14.5764 14.7889 14.759 14.6064C14.9415 14.4239 15.044 14.1763 15.044 13.9182V11.5197C15.6624 11.4184 16.2246 11.1006 16.6303 10.6231C17.0359 10.1455 17.2586 9.53936 17.2586 8.91277C17.2586 8.28618 17.0359 7.67998 16.6303 7.20244C16.2246 6.7249 15.6624 6.40709 15.044 6.30578ZM5.72842 3.21216H12.4023C12.8811 3.214 13.3398 3.40502 13.6784 3.74359C14.0169 4.08217 14.208 4.54085 14.2098 5.01967V6.30578C13.5902 6.40627 13.0265 6.72353 12.619 7.20099C12.2116 7.67846 11.987 8.28509 11.9852 8.91277V9.0518H6.14554V8.91277C6.14375 8.28509 5.91911 7.67846 5.51168 7.20099C5.10424 6.72353 4.54049 6.40627 3.92091 6.30578V5.01967C3.92274 4.54085 4.11376 4.08217 4.45234 3.74359C4.79092 3.40502 5.2496 3.214 5.72842 3.21216ZM14.6478 10.7203H14.6269C14.5163 10.7203 14.4102 10.7642 14.332 10.8424C14.2537 10.9207 14.2098 11.0268 14.2098 11.1374V13.9182C14.2098 13.955 14.1952 13.9904 14.1691 14.0165C14.143 14.0426 14.1076 14.0572 14.0708 14.0572H4.05995C4.02308 14.0572 3.98771 14.0426 3.96163 14.0165C3.93556 13.9904 3.92091 13.955 3.92091 13.9182V11.1374C3.92091 11.0268 3.87697 10.9207 3.79874 10.8424C3.72052 10.7642 3.61442 10.7203 3.50379 10.7203H3.48294C3.12636 10.7162 2.77897 10.6067 2.48449 10.4056C2.19 10.2045 1.96158 9.92076 1.82796 9.59014C1.69435 9.25952 1.66152 8.89676 1.7336 8.54753C1.80568 8.19829 1.97945 7.87818 2.23305 7.62747C2.48664 7.37677 2.80873 7.20668 3.15877 7.13861C3.50881 7.07054 3.87116 7.10754 4.20023 7.24493C4.52929 7.38233 4.81037 7.61399 5.00807 7.91077C5.20578 8.20754 5.31128 8.55617 5.3113 8.91277V11.6935C5.3113 11.8042 5.35525 11.9103 5.43347 11.9885C5.5117 12.0667 5.61779 12.1107 5.72842 12.1107C5.83905 12.1107 5.94514 12.0667 6.02337 11.9885C6.10159 11.9103 6.14554 11.8042 6.14554 11.6935V9.88604H11.9852V11.6935C11.9852 11.8042 12.0291 11.9103 12.1073 11.9885C12.1856 12.0667 12.2917 12.1107 12.4023 12.1107C12.5129 12.1107 12.619 12.0667 12.6972 11.9885C12.7755 11.9103 12.8194 11.8042 12.8194 11.6935V8.91277C12.8194 8.55617 12.9249 8.20754 13.1226 7.91077C13.3203 7.61399 13.6014 7.38233 13.9305 7.24493C14.2596 7.10754 14.6219 7.07054 14.9719 7.13861C15.322 7.20668 15.6441 7.37677 15.8977 7.62747C16.1513 7.87818 16.325 8.19829 16.3971 8.54753C16.4692 8.89676 16.4364 9.25952 16.3028 9.59014C16.1691 9.92076 15.9407 10.2045 15.6462 10.4056C15.3517 10.6067 15.0043 10.7162 14.6478 10.7203Z" fill="#A5A5A5"/>
</g>
<defs>
<clipPath id="clip0_84_1247">
<rect width="17.797" height="17.797" fill="white" transform="translate(0.166016 0.0137939)"/>
</clipPath>
</defs>
</svg>
